<svg width="30" height="28" viewBox="0 0 30 28" fill="none" xmlns="http://www.w3.org/2000/svg">
<path d="M28.125 2.62275L20.6184 2.62278V0.878906C20.6184 0.395469 20.1989 0.00390625 19.6809 0.00390625C19.163 0.00390625 18.7434 0.395469 18.7434 0.878906V2.62234H11.2434V0.878906C11.2434 0.395469 10.8239 0.00390625 10.3059 0.00390625C9.78797 0.00390625 9.36844 0.395469 9.36844 0.878906V2.62234H1.875C0.839531 2.62234 0 3.40591 0 4.37234V26.2473C0 27.2138 0.839531 27.9973 1.875 27.9973H28.125C29.1605 27.9973 30 27.2138 30 26.2473V4.37234C30 3.40632 29.1605 2.62275 28.125 2.62275ZM28.125 26.2473H1.875V4.37234H9.36844V5.25391C9.36844 5.73732 9.78797 6.12891 10.3059 6.12891C10.8239 6.12891 11.2434 5.73732 11.2434 5.25391V4.37278H18.7434V5.25434C18.7434 5.73778 19.163 6.12934 19.6809 6.12934C20.1989 6.12934 20.6184 5.73778 20.6184 5.25434V4.37278H28.125V26.2473ZM21.5625 13.9978H23.4375C23.955 13.9978 24.375 13.6058 24.375 13.1228V11.3728C24.375 10.8898 23.955 10.4978 23.4375 10.4978H21.5625C21.045 10.4978 20.625 10.8898 20.625 11.3728V13.1228C20.625 13.6058 21.045 13.9978 21.5625 13.9978ZM21.5625 20.9973H23.4375C23.955 20.9973 24.375 20.6058 24.375 20.1223V18.3723C24.375 17.8893 23.955 17.4973 23.4375 17.4973H21.5625C21.045 17.4973 20.625 17.8893 20.625 18.3723V20.1223C20.625 20.6062 21.045 20.9973 21.5625 20.9973ZM15.9375 17.4973H14.0625C13.545 17.4973 13.125 17.8893 13.125 18.3723V20.1223C13.125 20.6058 13.545 20.9973 14.0625 20.9973H15.9375C16.455 20.9973 16.875 20.6058 16.875 20.1223V18.3723C16.875 17.8898 16.455 17.4973 15.9375 17.4973ZM15.9375 10.4978H14.0625C13.545 10.4978 13.125 10.8898 13.125 11.3728V13.1228C13.125 13.6058 13.545 13.9978 14.0625 13.9978H15.9375C16.455 13.9978 16.875 13.6058 16.875 13.1228V11.3728C16.875 10.8893 16.455 10.4978 15.9375 10.4978ZM8.4375 10.4978H6.5625C6.045 10.4978 5.625 10.8898 5.625 11.3728V13.1228C5.625 13.6058 6.045 13.9978 6.5625 13.9978H8.4375C8.955 13.9978 9.375 13.6058 9.375 13.1228V11.3728C9.375 10.8893 8.955 10.4978 8.4375 10.4978ZM8.4375 17.4973H6.5625C6.045 17.4973 5.625 17.8893 5.625 18.3723V20.1223C5.625 20.6058 6.045 20.9973 6.5625 20.9973H8.4375C8.955 20.9973 9.375 20.6058 9.375 20.1223V18.3723C9.375 17.8898 8.955 17.4973 8.4375 17.4973Z" fill="#BCBCBC"/>
</svg>
