<svg width="30" height="30" viewBox="0 0 30 30" fill="none" xmlns="http://www.w3.org/2000/svg">
<path d="M15.7675 2.76337C15.5481 2.59267 15.278 2.5 15 2.5C14.722 2.5 14.4519 2.59267 14.2325 2.76337L3.9475 10.7634C3.49645 11.1142 3.13156 11.5636 2.88068 12.077C2.62981 12.5904 2.4996 13.1544 2.5 13.7259V25.0009C2.5 25.6639 2.76339 26.2998 3.23223 26.7686C3.70107 27.2375 4.33696 27.5009 5 27.5009H10C10.663 27.5009 11.2989 27.2375 11.7678 26.7686C12.2366 26.2998 12.5 25.6639 12.5 25.0009V17.5009H17.5V25.0009C17.5 25.6639 17.7634 26.2998 18.2322 26.7686C18.7011 27.2375 19.337 27.5009 20 27.5009H25C25.663 27.5009 26.2989 27.2375 26.7678 26.7686C27.2366 26.2998 27.5 25.6639 27.5 25.0009V13.7259C27.5001 13.1542 27.3695 12.5901 27.1182 12.0766C26.8669 11.5632 26.5015 11.114 26.05 10.7634L15.7675 2.76337Z" fill="#028960"/>
</svg>
