<svg width="17" height="20" viewBox="0 0 17 20" fill="none" xmlns="http://www.w3.org/2000/svg">
<g clip-path="url(#clip0_157_2582)">
<path d="M8.5 13.75C8.78179 13.75 9.05204 13.8817 9.2513 14.1161C9.45056 14.3505 9.5625 14.6685 9.5625 15C9.5625 15.3315 9.45056 15.6495 9.2513 15.8839C9.05204 16.1183 8.78179 16.25 8.5 16.25C8.21821 16.25 7.94796 16.1183 7.7487 15.8839C7.54944 15.6495 7.4375 15.3315 7.4375 15C7.4375 14.6685 7.54944 14.3505 7.7487 14.1161C7.94796 13.8817 8.21821 13.75 8.5 13.75ZM8.5 8.75C8.78179 8.75 9.05204 8.8817 9.2513 9.11612C9.45056 9.35054 9.5625 9.66848 9.5625 10C9.5625 10.3315 9.45056 10.6495 9.2513 10.8839C9.05204 11.1183 8.78179 11.25 8.5 11.25C8.21821 11.25 7.94796 11.1183 7.7487 10.8839C7.54944 10.6495 7.4375 10.3315 7.4375 10C7.4375 9.66848 7.54944 9.35054 7.7487 9.11612C7.94796 8.8817 8.21821 8.75 8.5 8.75ZM8.5 3.75C8.78179 3.75 9.05204 3.8817 9.2513 4.11612C9.45056 4.35054 9.5625 4.66848 9.5625 5C9.5625 5.33152 9.45056 5.64946 9.2513 5.88388C9.05204 6.1183 8.78179 6.25 8.5 6.25C8.21821 6.25 7.94796 6.1183 7.7487 5.88388C7.54944 5.64946 7.4375 5.33152 7.4375 5C7.4375 4.66848 7.54944 4.35054 7.7487 4.11612C7.94796 3.8817 8.21821 3.75 8.5 3.75Z" fill="black"/>
</g>
<defs>
<clipPath id="clip0_157_2582">
<rect width="17" height="20" fill="white"/>
</clipPath>
</defs>
</svg>
