<svg width="30" height="32" viewBox="0 0 30 32" fill="none" xmlns="http://www.w3.org/2000/svg">
<path d="M20 16.0007C19.0054 16.0007 18.0516 15.5792 17.3483 14.8291C16.6451 14.0789 16.25 13.0615 16.25 12.0007V6.66732H6.25C5.58696 6.66732 4.95107 6.94827 4.48223 7.44837C4.01339 7.94846 3.75 8.62674 3.75 9.33398V24.0007C3.75 24.7079 4.01339 25.3862 4.48223 25.8863C4.95107 26.3864 5.58696 26.6673 6.25 26.6673H22.5C23.163 26.6673 23.7989 26.3864 24.2678 25.8863C24.7366 25.3862 25 24.7079 25 24.0007V16.0007H20ZM17.5 12.0007C17.5 12.7079 17.7634 13.3862 18.2322 13.8863C18.7011 14.3864 19.337 14.6673 20 14.6673H24.4875L17.5 7.21398V12.0007ZM6.25 5.33398H17.5L26.25 14.6673V24.0007C26.25 25.0615 25.8549 26.0789 25.1517 26.8291C24.4484 27.5792 23.4946 28.0007 22.5 28.0007H6.25C5.25544 28.0007 4.30161 27.5792 3.59835 26.8291C2.89509 26.0789 2.5 25.0615 2.5 24.0007V9.33398C2.5 8.27312 2.89509 7.2557 3.59835 6.50556C4.30161 5.75541 5.25544 5.33398 6.25 5.33398Z" fill="#BCBCBC"/>
</svg>
